<svg xmlns="http://www.w3.org/2000/svg" width="680" height="570" viewBox="0 0 680 570" role="img">
<title>Dhaqira backend architecture</title>
<desc>User voice query flows through editorial curation and RAG retrieval into the Arabic LLM EI core, producing voice synthesis output across App, Podcast and Class surfaces.</desc>
<defs>
  <marker id="ar" viewBox="0 0 10 10" refX="8" refY="5" markerWidth="5" markerHeight="5" orient="auto-start-reverse">
    <path d="M2 1L8 5L2 9" fill="none" stroke="context-stroke" stroke-width="1.5" stroke-linecap="round" stroke-linejoin="round"/>
  </marker>
  <style>
    text{font-family:'Plus Jakarta Sans','Segoe UI',sans-serif;}
    .th{font-size:12px;font-weight:600;}
    .ts{font-size:10px;font-weight:400;}
    .f1{stroke-dasharray:6 4;animation:fl 1.8s linear infinite;}
    .f2{stroke-dasharray:6 4;animation:fl 2.5s linear infinite;}
    .f3{stroke-dasharray:6 4;animation:fl 2.1s linear infinite;}
    @keyframes fl{to{stroke-dashoffset:-20;}}
  </style>
</defs>

<rect width="680" height="570" rx="16" fill="#0d1829"/>
<g stroke="#1a2a44" stroke-width="0.5">
  <line x1="170" y1="0"   x2="170" y2="570"/>
  <line x1="398" y1="0"   x2="398" y2="440"/>
  <line x1="530" y1="0"   x2="530" y2="570"/>
  <line x1="0"   y1="190" x2="680" y2="190"/>
  <line x1="0"   y1="390" x2="680" y2="390"/>
</g>

<text class="ts" x="85"  y="24" text-anchor="middle" fill="#3a5070" letter-spacing="1">INPUT</text>
<text class="ts" x="284" y="24" text-anchor="middle" fill="#3a5070" letter-spacing="1">KNOWLEDGE</text>
<text class="ts" x="464" y="24" text-anchor="middle" fill="#3a5070" letter-spacing="1">EI ENGINE</text>
<text class="ts" x="602" y="24" text-anchor="middle" fill="#3a5070" letter-spacing="1">SURFACES</text>

<!-- USER INPUT -->
<circle cx="85" cy="108" r="42" fill="#14253d" stroke="#E87422" stroke-width="1.8"/>
<rect x="76" y="88" width="18" height="26" rx="9" fill="#E87422"/>
<path d="M66 112 Q66 130 85 130 Q104 130 104 112" fill="none" stroke="#E87422" stroke-width="2.2" stroke-linecap="round"/>
<line x1="85" y1="130" x2="85" y2="138" stroke="#E87422" stroke-width="2"/>
<line x1="77" y1="138" x2="93" y2="138" stroke="#E87422" stroke-width="1.8" stroke-linecap="round"/>
<text class="th" x="85" y="162" text-anchor="middle" fill="#E8DCC8">Voice / text</text>
<text class="ts" x="85" y="174" text-anchor="middle" fill="#8090a8">User query</text>

<!-- SCHOLAR ARCHIVE -->
<circle cx="284" cy="108" r="42" fill="#14253d" stroke="#E87422" stroke-width="1.8"/>
<rect x="262" y="90"  width="10" height="28" rx="2" fill="#E87422"/>
<rect x="276" y="86"  width="10" height="32" rx="2" fill="#BA7517"/>
<rect x="290" y="93"  width="9"  height="25" rx="2" fill="#E87422" opacity="0.8"/>
<rect x="302" y="88"  width="8"  height="30" rx="2" fill="#633806"/>
<text class="th" x="284" y="162" text-anchor="middle" fill="#E8DCC8">Intellectual archive</text>
<text class="ts" x="284" y="174" text-anchor="middle" fill="#BA7517">Books · interviews · articles</text>

<!-- EDITORIAL CURATION -->
<rect x="210" y="220" width="148" height="62" rx="10" fill="#14253d" stroke="#7F77DD" stroke-width="1.4"/>
<g transform="translate(216,232)">
  <rect x="0" y="5" width="12" height="4" rx="1" fill="#7F77DD" transform="rotate(-42 6 7)"/>
  <polygon points="0,17 3,13 4,17" fill="#7F77DD"/>
  <path d="M16 7 L19 11 L25 4" fill="none" stroke="#9FE1CB" stroke-width="2" stroke-linecap="round" stroke-linejoin="round"/>
</g>
<text class="th" x="294" y="244" text-anchor="middle" fill="#CECBF6">Editorial curation</text>
<text class="ts" x="294" y="259" text-anchor="middle" fill="#9090c0">Verified · indexed</text>

<!-- RAG RETRIEVER -->
<rect x="210" y="316" width="148" height="62" rx="10" fill="#14253d" stroke="#534AB7" stroke-width="1.4"/>
<g transform="translate(216,326)">
  <circle cx="10" cy="10" r="8.5" fill="none" stroke="#534AB7" stroke-width="2.2"/>
  <line x1="16.5" y1="16.5" x2="24" y2="24" stroke="#534AB7" stroke-width="2.8" stroke-linecap="round"/>
</g>
<text class="th" x="294" y="340" text-anchor="middle" fill="#AFA9EC">RAG retriever</text>
<text class="ts" x="294" y="355" text-anchor="middle" fill="#7070a8">Semantic search</text>

<!-- ARABIC LLM / EI CORE -->
<circle cx="464" cy="342" r="64" fill="none" stroke="#E87422" stroke-width="0.6" opacity="0.18"/>
<circle cx="464" cy="342" r="54" fill="none" stroke="#E87422" stroke-width="0.6" opacity="0.28"/>
<circle cx="464" cy="342" r="46" fill="#14253d" stroke="#E87422" stroke-width="2"/>
<path d="M432 332 Q437 325 442 332 Q447 339 452 332 Q457 325 462 332 Q467 339 472 332 Q477 325 482 332 Q487 339 492 332"
      fill="none" stroke="#E87422" stroke-width="1.9" stroke-linecap="round" opacity="0.9"/>
<path d="M432 345 Q437 338 442 345 Q447 352 452 345 Q457 338 462 345 Q467 352 472 345 Q477 338 482 345 Q487 352 492 345"
      fill="none" stroke="#BA7517" stroke-width="1.3" stroke-linecap="round" opacity="0.65"/>
<path d="M436 358 Q441 351 446 358 Q451 365 456 358 Q461 351 466 358 Q471 365 476 358 Q481 351 486 358"
      fill="none" stroke="#854F0B" stroke-width="1" stroke-linecap="round" opacity="0.4"/>
<text class="th" x="464" y="400" text-anchor="middle" fill="#E8DCC8">Arabic LLM</text>
<text class="ts" x="464" y="413" text-anchor="middle" fill="#E87422">EI core</text>

<!-- VOICE SYNTHESIS -->
<rect x="334" y="450" width="210" height="58" rx="10" fill="#14253d" stroke="#1D9E75" stroke-width="1.6"/>
<rect x="344" y="466" width="5" height="14" rx="2" fill="#1D9E75" opacity="0.5"/>
<rect x="353" y="461" width="5" height="24" rx="2" fill="#1D9E75" opacity="0.7"/>
<rect x="362" y="464" width="5" height="18" rx="2" fill="#1D9E75" opacity="0.9"/>
<rect x="371" y="458" width="5" height="30" rx="2" fill="#1D9E75"/>
<rect x="380" y="462" width="5" height="22" rx="2" fill="#1D9E75" opacity="0.8"/>
<rect x="389" y="467" width="5" height="12" rx="2" fill="#1D9E75" opacity="0.5"/>
<text class="th" x="472" y="472" text-anchor="middle" fill="#9FE1CB">Voice synthesis</text>
<text class="ts" x="472" y="486" text-anchor="middle" fill="#5DCAA5">Personalised EI voice</text>

<!-- DHAQIRA APP -->
<rect x="538" y="66" width="130" height="50" rx="8" fill="#14253d" stroke="#1D9E75" stroke-width="1.2"/>
<rect x="548" y="73" width="14" height="22" rx="3" fill="none" stroke="#1D9E75" stroke-width="1.4"/>
<rect x="552" y="91" width="6" height="2" rx="1" fill="#1D9E75"/>
<text class="th" x="615" y="88"  text-anchor="middle" fill="#9FE1CB">Dhaqira App</text>
<text class="ts" x="615" y="101" text-anchor="middle" fill="#5DCAA5">Daily companion</text>

<!-- DHAQIRA PODCAST -->
<rect x="538" y="136" width="130" height="50" rx="8" fill="#14253d" stroke="#1D9E75" stroke-width="1.2"/>
<rect x="549" y="144" width="12" height="16" rx="6" fill="none" stroke="#1D9E75" stroke-width="1.5"/>
<path d="M546 158 Q546 166 555 166 Q564 166 564 158" fill="none" stroke="#1D9E75" stroke-width="1.5" stroke-linecap="round"/>
<line x1="555" y1="166" x2="555" y2="170" stroke="#1D9E75" stroke-width="1.4"/>
<line x1="551" y1="170" x2="559" y2="170" stroke="#1D9E75" stroke-width="1.3" stroke-linecap="round"/>
<text class="th" x="613" y="156" text-anchor="middle" fill="#9FE1CB">Dhaqira Podcast</text>
<text class="ts" x="613" y="169" text-anchor="middle" fill="#5DCAA5">Live interviews</text>

<!-- DHAQIRA CLASS -->
<rect x="538" y="206" width="130" height="50" rx="8" fill="#14253d" stroke="#1D9E75" stroke-width="1.2"/>
<polygon points="549,226 562,219 575,226 562,233" fill="#1D9E75" opacity="0.9"/>
<line x1="575" y1="226" x2="575" y2="234" stroke="#1D9E75" stroke-width="1.4"/>
<path d="M555 231 Q555 239 562 239 Q569 239 569 231" fill="none" stroke="#1D9E75" stroke-width="1.4"/>
<text class="th" x="613" y="226" text-anchor="middle" fill="#9FE1CB">Dhaqira Class</text>
<text class="ts" x="613" y="239" text-anchor="middle" fill="#5DCAA5">Education</text>

<!-- CONNECTORS -->
<path class="f1" d="M85 150 L85 251 L208 251" fill="none" stroke="#E87422" stroke-width="1.6" marker-end="url(#ar)"/>
<path class="f2" d="M284 150 L284 218" fill="none" stroke="#7F77DD" stroke-width="1.6" marker-end="url(#ar)"/>
<line class="f1" x1="284" y1="282" x2="284" y2="314" stroke="#534AB7" stroke-width="1.6" marker-end="url(#ar)"/>
<path class="f3" d="M358 347 L416 347" fill="none" stroke="#E87422" stroke-width="2" marker-end="url(#ar)"/>
<line class="f1" x1="464" y1="388" x2="464" y2="448" stroke="#1D9E75" stroke-width="1.6" marker-end="url(#ar)"/>
<path class="f2" d="M506 322 L520 322 L520 91 L536 91" fill="none" stroke="#1D9E75" stroke-width="1" marker-end="url(#ar)"/>
<path class="f3" d="M506 342 L520 342 L520 161 L536 161" fill="none" stroke="#1D9E75" stroke-width="1" marker-end="url(#ar)"/>
<path class="f1" d="M506 362 L520 362 L520 231 L536 231" fill="none" stroke="#1D9E75" stroke-width="1" marker-end="url(#ar)"/>

</svg>
